# xmcd
#
# Track frame offsets:
#	150
#	13388
#	26666
#	42414
#	56049
#	68446
#	78085
#	90880
#	106437
#	120254
#	133640
#	146641
#	160578
#	170620
#	184549
#	199226
#	211640
#	226001
#	237122
#	250234
#	263019
#	277886
#	292105
#	304489
#	316487
#
# Disc length: 4406
#
# Revision: 1
# Processed by: cddbd v1.5.1PL0 Copyright (c) Steve Scherf et al.
# Submitted via: ExactAudioCopy v0.95a5
# Normalized: r0:TRMNUM
#
DISCID=52113419
DTITLE=Billy Holiday - Ultimate Lounge
DYEAR=1900
DGENRE=Blues
TTITLE0=God Bless This Child 
TTITLE1=Lets Do It
TTITLE2=I'll be Seeing you
TTITLE3=All of Me
TTITLE4=The Very Thought of You
TTITLE5=I'm Gonna lock my heart and throw away the Key
TTITLE6=Them There Eyes
TTITLE7=I Cover the Waterfront
TTITLE8=Time on my Hands
TTITLE9=You're just a no Account
TTITLE10=You go to my Head
TTITLE11=Strange Fruit
TTITLE12=Trav'lin All Alone
TTITLE13=I Love my Man
TTITLE14=Embraceable You
TTITLE15=Dream of Life
TTITLE16=Any Old Time
TTITLE17=Big Stuff
TTITLE18=Laughing at Time
TTITLE19=Falling in Love Again
TTITLE20=Yesterdays
TTITLE21=As Time Goes By
TTITLE22=You're a Lucky Guy
TTITLE23=He's Funny that Way
TTITLE24=The Man I Love
EXTD=
EXTT0=
EXTT1=
EXTT2=
EXTT3=
EXTT4=
EXTT5=
EXTT6=
EXTT7=
EXTT8=
EXTT9=
EXTT10=
EXTT11=
EXTT12=
EXTT13=
EXTT14=
EXTT15=
EXTT16=
EXTT17=
EXTT18=
EXTT19=
EXTT20=
EXTT21=
EXTT22=
EXTT23=
EXTT24=
PLAYORDER=
